# xmcd
#
# Track frame offsets: 
#        150
#        16952
#        38590
#        58252
#        76957
#        92056
#        107109
#        131772
#        160860
#        176123
#        198763
#        218233
#        238105
#        257190
#
# Disc length: 3640 seconds
#
# Revision: 1
# Processed by: cddbd v1.5.2PL0 Copyright (c) Steve Scherf et al.
# Submitted via: ExactAudioCopy v0.99pb4
#
DISCID=bf0e360e
DTITLE=Massimo Faraò Trio - Jazz Lounge
DYEAR=2006
DGENRE=Jazz
TTITLE0=Adagio In G Minor
TTITLE1=Libiam Né Lieti Calici
TTITLE2=La Donna É Mobile
TTITLE3=Air On The G String
TTITLE4=Pomp And Circumstance Nr. 1
TTITLE5=Valse Gracieuse
TTITLE6=Reverie
TTITLE7=Symphony Nr. 5
TTITLE8=Farandole L'Arlesienne
TTITLE9=The Death Of Ase
TTITLE10=Notturno In Eb Major
TTITLE11=Lascia Che Lo Pianaga
TTITLE12=Waltz
TTITLE13=Habanera
EXTD=YEAR: 2006
EXTT0=
EXTT1=
EXTT2=
EXTT3=
EXTT4=
EXTT5=
EXTT6=
EXTT7=
EXTT8=
EXTT9=
EXTT10=
EXTT11=
EXTT12=
EXTT13=
PLAYORDER=
